# xmcd
#
# Track frame offsets: 
#        150
#        15733
#        37722
#        52159
#        69033
#        86116
#        109766
#        132010
#        148763
#        163891
#        178971
#
# Disc length: 2645 seconds
#
# Revision: 1
# Processed by: cddbd v1.5.2PL0 Copyright (c) Steve Scherf et al.
# Submitted via: ExactAudioCopy v1.0b1
#
DISCID=950a530b
DTITLE=Dakota - Viss Vel Bus
DYEAR=2008
DGENRE=Country
TTITLE0=Viss Vel Bus
TTITLE1=Dzeltenie Aizkari
TTITLE2=Ormanis
TTITLE3=Lietus Virs
TTITLE4=Miklas
TTITLE5=Baltais Sapnis
TTITLE6=Malduguns
TTITLE7=Alvas Zaldatini
TTITLE8=Padsmitnieku Laiks
TTITLE9=Bagatibu Sala
TTITLE10=Veja Balss
EXTD=YEAR: 2008
EXTT0=
EXTT1=
EXTT2=
EXTT3=
EXTT4=
EXTT5=
EXTT6=
EXTT7=
EXTT8=
EXTT9=
EXTT10=
PLAYORDER=
